<svg width="266" height="89" viewBox="0 0 266 89" fill="none" xmlns="http://www.w3.org/2000/svg">
<path fill-rule="evenodd" clip-rule="evenodd" d="M33.6168 10.4295C40.686 10.4295 46.8637 11.8314 52.1497 14.6352C57.4358 17.439 61.5117 21.3899 64.3777 26.4877C67.3073 31.5218 68.7721 37.3525 68.7721 43.9797C68.7721 50.5432 67.3073 56.3739 64.3777 61.4717C61.5117 66.5696 57.4039 70.5204 52.0542 73.3242C46.7682 76.128 40.6224 77.5299 33.6168 77.5299H8.49219V42.4822H24.8279V63.3834H32.5659C38.7436 63.3834 43.552 61.6947 46.9911 58.3174C50.4302 54.9401 52.1497 50.1609 52.1497 43.9797C52.1497 37.7986 50.4302 32.9875 46.9911 29.5464C43.552 26.1054 38.7436 24.3848 32.5659 24.3848H24.8279V24.4273H8.49219V10.4295H33.6168ZM201.244 10.4295V23.5246H183.475V23.5777H167.14V23.5246H149.371V10.4295H201.244ZM167.14 41.6326H183.475V77.5299H167.14V41.6326ZM233.707 78.199C228.803 78.199 224.409 77.4025 220.524 75.8094C216.639 74.2163 213.519 71.8586 211.162 68.7362C208.869 65.6137 207.659 61.8541 207.532 57.4572H224.918C225.173 59.9424 226.033 61.8541 227.497 63.1922C228.962 64.4667 230.873 65.1039 233.229 65.1039C235.649 65.1039 237.56 64.5623 238.961 63.479C240.362 62.332 241.063 60.7708 241.063 58.7953C241.063 57.1385 240.49 55.7685 239.343 54.6852C238.261 53.6019 236.891 52.7098 235.235 52.0088C233.643 51.3079 231.351 50.5113 228.357 49.6192C224.026 48.281 220.492 46.9428 217.754 45.6047C215.015 44.2665 212.659 42.2911 210.684 39.6784C208.71 37.0658 207.723 33.6566 207.723 29.4508C207.723 23.206 209.984 18.3311 214.506 14.8264C219.027 11.2579 224.918 9.47363 232.178 9.47363C239.566 9.47363 245.521 11.2579 250.043 14.8264C254.564 18.3311 256.985 23.2378 257.303 29.5464H239.63C239.502 27.3798 238.706 25.6912 237.242 24.4804C235.777 23.206 233.898 22.5687 231.605 22.5687C229.631 22.5687 228.039 23.1104 226.829 24.1937C225.619 25.2133 225.014 26.7107 225.014 28.6862C225.014 30.8527 226.033 32.5414 228.071 33.7521C230.109 34.9629 233.293 36.2692 237.624 37.6711C241.954 39.1368 245.457 40.5387 248.132 41.8768C250.871 43.215 253.227 45.1586 255.201 47.7075C257.176 50.2564 258.163 53.5382 258.163 57.5527C258.163 61.3761 257.176 64.849 255.201 67.9715C253.291 71.0939 250.488 73.5791 246.795 75.4271C243.101 77.2751 238.738 78.199 233.707 78.199ZM109.617 78.199C103.312 78.199 97.5168 76.7334 92.2308 73.8021C87.0085 70.8709 82.837 66.7926 79.7163 61.5673C76.6593 56.2783 75.1308 50.352 75.1308 43.7885C75.1308 37.2251 76.6593 31.3307 79.7163 26.1054C82.837 20.8801 87.0085 16.8018 92.2308 13.8705C97.5168 10.9393 103.312 9.47363 109.617 9.47363C115.922 9.47363 121.686 10.9393 126.908 13.8705C132.194 16.8018 136.334 20.8801 139.327 26.1054C142.384 31.3307 143.913 37.2251 143.913 43.7885C143.913 50.352 142.384 56.2783 139.327 61.5673C136.27 66.7926 132.131 70.8709 126.908 73.8021C121.686 76.7334 115.922 78.199 109.617 78.199ZM109.617 63.2878C114.967 63.2878 119.234 61.5036 122.419 57.9351C125.667 54.3666 127.291 49.6511 127.291 43.7885C127.291 37.8623 125.667 33.1468 122.419 29.642C119.234 26.0735 114.967 24.2893 109.617 24.2893C104.204 24.2893 99.8733 26.0417 96.6252 29.5464C93.4409 33.0512 91.8487 37.7986 91.8487 43.7885C91.8487 49.7148 93.4409 54.4622 96.6252 58.0307C99.8733 61.5354 104.204 63.2878 109.617 63.2878Z" fill="#004E60"/>
<path d="M148.837 43.7566C148.837 65.2245 131.444 82.6277 109.988 82.6277C88.5321 82.6277 71.1387 65.2245 71.1387 43.7566C71.1387 22.2887 88.5321 4.8855 109.988 4.8855C131.444 4.8855 148.837 22.2887 148.837 43.7566Z" fill="#00768F"/>
</svg>
