<svg width="696" height="696" viewBox="0 0 696 696" fill="none" xmlns="http://www.w3.org/2000/svg">
<rect width="696" height="696" fill="#02091A"/>
<mask id="path-1-inside-1_2230_32" fill="white">
<path fill-rule="evenodd" clip-rule="evenodd" d="M324.988 385.628C346.444 385.628 363.837 368.225 363.837 346.757C363.837 325.289 346.444 307.885 324.988 307.885C303.532 307.885 286.139 325.289 286.139 346.757C286.139 368.225 303.532 385.628 324.988 385.628ZM267.15 317.635C261.864 314.831 255.686 313.429 248.617 313.429H223.492V327.427H239.828V327.385H247.566C253.744 327.385 258.552 329.105 261.991 332.546C265.43 335.987 267.15 340.798 267.15 346.98C267.15 353.161 265.43 357.94 261.991 361.317C258.552 364.695 253.744 366.383 247.566 366.383H239.828V345.482H223.492V380.53H248.617C255.622 380.53 261.768 379.128 267.054 376.324C272.404 373.52 276.512 369.569 279.378 364.472C282.307 359.374 283.772 353.543 283.772 346.98C283.772 340.352 282.307 334.522 279.378 329.488C276.512 324.39 272.436 320.439 267.15 317.635ZM416.244 326.524V313.429H364.371V326.524H382.14V326.578H398.475V326.524H416.244ZM398.475 344.632H382.14V380.53H398.475V344.632ZM435.524 378.809C439.409 380.402 443.803 381.199 448.707 381.199C453.738 381.199 458.101 380.275 461.795 378.427C465.488 376.579 468.291 374.094 470.201 370.971C472.176 367.849 473.163 364.376 473.163 360.553C473.163 356.538 472.176 353.256 470.201 350.707C468.227 348.158 465.871 346.215 463.132 344.877C460.457 343.539 456.954 342.137 452.624 340.671C448.293 339.269 445.109 337.963 443.071 336.752C441.033 335.541 440.014 333.853 440.014 331.686C440.014 329.711 440.619 328.213 441.829 327.194C443.039 326.11 444.631 325.569 446.605 325.569C448.898 325.569 450.777 326.206 452.242 327.48C453.706 328.691 454.502 330.38 454.63 332.546H472.303C471.985 326.238 469.564 321.331 465.043 317.826C460.521 314.258 454.566 312.474 447.178 312.474C439.918 312.474 434.027 314.258 429.506 317.826C424.984 321.331 422.723 326.206 422.723 332.451C422.723 336.656 423.71 340.066 425.684 342.678C427.659 345.291 430.015 347.266 432.754 348.605C435.492 349.943 439.026 351.281 443.357 352.619C446.351 353.511 448.643 354.308 450.235 355.009C451.891 355.71 453.261 356.602 454.343 357.685C455.49 358.768 456.063 360.138 456.063 361.795C456.063 363.771 455.362 365.332 453.961 366.479C452.56 367.562 450.649 368.104 448.229 368.104C445.873 368.104 443.962 367.467 442.497 366.192C441.033 364.854 440.173 362.942 439.918 360.457H422.532C422.659 364.854 423.869 368.614 426.162 371.736C428.519 374.858 431.639 377.216 435.524 378.809Z"/>
</mask>
<path fill-rule="evenodd" clip-rule="evenodd" d="M324.988 385.628C346.444 385.628 363.837 368.225 363.837 346.757C363.837 325.289 346.444 307.885 324.988 307.885C303.532 307.885 286.139 325.289 286.139 346.757C286.139 368.225 303.532 385.628 324.988 385.628ZM267.15 317.635C261.864 314.831 255.686 313.429 248.617 313.429H223.492V327.427H239.828V327.385H247.566C253.744 327.385 258.552 329.105 261.991 332.546C265.43 335.987 267.15 340.798 267.15 346.98C267.15 353.161 265.43 357.94 261.991 361.317C258.552 364.695 253.744 366.383 247.566 366.383H239.828V345.482H223.492V380.53H248.617C255.622 380.53 261.768 379.128 267.054 376.324C272.404 373.52 276.512 369.569 279.378 364.472C282.307 359.374 283.772 353.543 283.772 346.98C283.772 340.352 282.307 334.522 279.378 329.488C276.512 324.39 272.436 320.439 267.15 317.635ZM416.244 326.524V313.429H364.371V326.524H382.14V326.578H398.475V326.524H416.244ZM398.475 344.632H382.14V380.53H398.475V344.632ZM435.524 378.809C439.409 380.402 443.803 381.199 448.707 381.199C453.738 381.199 458.101 380.275 461.795 378.427C465.488 376.579 468.291 374.094 470.201 370.971C472.176 367.849 473.163 364.376 473.163 360.553C473.163 356.538 472.176 353.256 470.201 350.707C468.227 348.158 465.871 346.215 463.132 344.877C460.457 343.539 456.954 342.137 452.624 340.671C448.293 339.269 445.109 337.963 443.071 336.752C441.033 335.541 440.014 333.853 440.014 331.686C440.014 329.711 440.619 328.213 441.829 327.194C443.039 326.11 444.631 325.569 446.605 325.569C448.898 325.569 450.777 326.206 452.242 327.48C453.706 328.691 454.502 330.38 454.63 332.546H472.303C471.985 326.238 469.564 321.331 465.043 317.826C460.521 314.258 454.566 312.474 447.178 312.474C439.918 312.474 434.027 314.258 429.506 317.826C424.984 321.331 422.723 326.206 422.723 332.451C422.723 336.656 423.71 340.066 425.684 342.678C427.659 345.291 430.015 347.266 432.754 348.605C435.492 349.943 439.026 351.281 443.357 352.619C446.351 353.511 448.643 354.308 450.235 355.009C451.891 355.71 453.261 356.602 454.343 357.685C455.49 358.768 456.063 360.138 456.063 361.795C456.063 363.771 455.362 365.332 453.961 366.479C452.56 367.562 450.649 368.104 448.229 368.104C445.873 368.104 443.962 367.467 442.497 366.192C441.033 364.854 440.173 362.942 439.918 360.457H422.532C422.659 364.854 423.869 368.614 426.162 371.736C428.519 374.858 431.639 377.216 435.524 378.809Z" fill="#475066"/>
<path d="M267.15 317.635L267.618 316.752L267.618 316.752L267.15 317.635ZM223.492 313.429V312.429H222.492V313.429H223.492ZM223.492 327.427H222.492V328.427H223.492V327.427ZM239.828 327.427V328.427H240.828V327.427H239.828ZM239.828 327.385V326.385H238.828V327.385H239.828ZM261.991 332.546L261.284 333.253L261.284 333.253L261.991 332.546ZM239.828 366.383H238.828V367.383H239.828V366.383ZM239.828 345.482H240.828V344.482H239.828V345.482ZM223.492 345.482V344.482H222.492V345.482H223.492ZM223.492 380.53H222.492V381.53H223.492V380.53ZM267.054 376.324L266.59 375.438L266.586 375.441L267.054 376.324ZM279.378 364.472L278.511 363.973L278.506 363.982L279.378 364.472ZM279.378 329.488L278.506 329.978L278.51 329.984L278.513 329.991L279.378 329.488ZM416.244 313.429H417.244V312.429H416.244V313.429ZM416.244 326.524V327.524H417.244V326.524H416.244ZM364.371 313.429V312.429H363.371V313.429H364.371ZM364.371 326.524H363.371V327.524H364.371V326.524ZM382.14 326.524H383.14V325.524H382.14V326.524ZM382.14 326.578H381.14V327.578H382.14V326.578ZM398.475 326.578V327.578H399.475V326.578H398.475ZM398.475 326.524V325.524H397.475V326.524H398.475ZM382.14 344.632V343.632H381.14V344.632H382.14ZM398.475 344.632H399.475V343.632H398.475V344.632ZM382.14 380.53H381.14V381.53H382.14V380.53ZM398.475 380.53V381.53H399.475V380.53H398.475ZM435.524 378.809L435.904 377.884L435.904 377.884L435.524 378.809ZM461.795 378.427L462.242 379.321L462.242 379.321L461.795 378.427ZM470.201 370.971L469.356 370.437L469.352 370.443L469.348 370.449L470.201 370.971ZM463.132 344.877L462.685 345.771L462.693 345.775L463.132 344.877ZM452.624 340.671L452.944 339.724L452.932 339.72L452.624 340.671ZM443.071 336.752L442.56 337.612L442.56 337.612L443.071 336.752ZM441.829 327.194L442.473 327.958L442.485 327.949L442.496 327.939L441.829 327.194ZM452.242 327.48L451.585 328.235L451.595 328.243L451.604 328.251L452.242 327.48ZM454.63 332.546L453.632 332.605L453.687 333.546H454.63V332.546ZM472.303 332.546V333.546H473.355L473.302 332.496L472.303 332.546ZM465.043 317.826L464.423 318.611L464.43 318.617L465.043 317.826ZM429.506 317.826L430.118 318.617L430.125 318.611L429.506 317.826ZM432.754 348.605L433.193 347.706L433.193 347.706L432.754 348.605ZM443.357 352.619L443.062 353.575L443.072 353.577L443.357 352.619ZM450.235 355.009L449.832 355.924L449.839 355.927L449.846 355.93L450.235 355.009ZM454.343 357.685L453.636 358.392L453.646 358.402L453.656 358.412L454.343 357.685ZM453.961 366.479L454.573 367.27L454.584 367.261L454.595 367.253L453.961 366.479ZM442.497 366.192L441.823 366.93L441.832 366.939L441.841 366.947L442.497 366.192ZM439.918 360.457L440.913 360.355L440.821 359.457H439.918V360.457ZM422.532 360.457V359.457H421.503L421.532 360.486L422.532 360.457ZM426.162 371.736L425.356 372.328L425.364 372.338L426.162 371.736ZM362.837 346.757C362.837 367.673 345.891 384.628 324.988 384.628V386.628C346.996 386.628 364.837 368.776 364.837 346.757H362.837ZM324.988 308.885C345.891 308.885 362.837 325.84 362.837 346.757H364.837C364.837 324.737 346.996 306.885 324.988 306.885V308.885ZM287.139 346.757C287.139 325.84 304.085 308.885 324.988 308.885V306.885C302.979 306.885 285.139 324.737 285.139 346.757H287.139ZM324.988 384.628C304.085 384.628 287.139 367.673 287.139 346.757H285.139C285.139 368.776 302.979 386.628 324.988 386.628V384.628ZM248.617 314.429C255.552 314.429 261.564 315.804 266.681 318.518L267.618 316.752C262.164 313.859 255.82 312.429 248.617 312.429V314.429ZM223.492 314.429H248.617V312.429H223.492V314.429ZM224.492 327.427V313.429H222.492V327.427H224.492ZM239.828 326.427H223.492V328.427H239.828V326.427ZM238.828 327.385V327.427H240.828V327.385H238.828ZM247.566 326.385H239.828V328.385H247.566V326.385ZM262.698 331.839C259.025 328.163 253.934 326.385 247.566 326.385V328.385C253.553 328.385 258.079 330.047 261.284 333.253L262.698 331.839ZM268.15 346.98C268.15 340.609 266.372 335.515 262.698 331.839L261.284 333.253C264.488 336.459 266.15 340.988 266.15 346.98H268.15ZM262.692 362.031C266.372 358.416 268.15 353.35 268.15 346.98H266.15C266.15 352.972 264.488 357.464 261.29 360.604L262.692 362.031ZM247.566 367.383C253.929 367.383 259.017 365.639 262.692 362.031L261.29 360.604C258.087 363.75 253.559 365.383 247.566 365.383V367.383ZM239.828 367.383H247.566V365.383H239.828V367.383ZM238.828 345.482V366.383H240.828V345.482H238.828ZM223.492 346.482H239.828V344.482H223.492V346.482ZM224.492 380.53V345.482H222.492V380.53H224.492ZM248.617 379.53H223.492V381.53H248.617V379.53ZM266.586 375.441C261.467 378.156 255.487 379.53 248.617 379.53V381.53C255.758 381.53 262.07 380.1 267.523 377.208L266.586 375.441ZM278.506 363.982C275.738 368.905 271.774 372.721 266.59 375.438L267.518 377.21C273.033 374.319 277.285 370.234 280.249 364.962L278.506 363.982ZM282.772 346.98C282.772 353.389 281.343 359.044 278.511 363.973L280.245 364.97C283.271 359.703 284.772 353.697 284.772 346.98H282.772ZM278.513 329.991C281.342 334.852 282.772 340.504 282.772 346.98H284.772C284.772 340.2 283.272 334.192 280.242 328.985L278.513 329.991ZM266.681 318.518C271.802 321.235 275.736 325.051 278.506 329.978L280.249 328.998C277.287 323.729 273.069 319.643 267.618 316.752L266.681 318.518ZM415.244 313.429V326.524H417.244V313.429H415.244ZM364.371 314.429H416.244V312.429H364.371V314.429ZM365.371 326.524V313.429H363.371V326.524H365.371ZM382.14 325.524H364.371V327.524H382.14V325.524ZM383.14 326.578V326.524H381.14V326.578H383.14ZM398.475 325.578H382.14V327.578H398.475V325.578ZM397.475 326.524V326.578H399.475V326.524H397.475ZM416.244 325.524H398.475V327.524H416.244V325.524ZM382.14 345.632H398.475V343.632H382.14V345.632ZM383.14 380.53V344.632H381.14V380.53H383.14ZM398.475 379.53H382.14V381.53H398.475V379.53ZM397.475 344.632V380.53H399.475V344.632H397.475ZM448.707 380.199C443.912 380.199 439.649 379.42 435.904 377.884L435.145 379.735C439.168 381.385 443.694 382.199 448.707 382.199V380.199ZM461.347 377.533C457.819 379.298 453.616 380.199 448.707 380.199V382.199C453.86 382.199 458.382 381.252 462.242 379.321L461.347 377.533ZM469.348 370.449C467.548 373.392 464.896 375.757 461.347 377.533L462.242 379.321C466.081 377.401 469.034 374.795 471.054 371.493L469.348 370.449ZM472.163 360.553C472.163 364.194 471.226 367.48 469.356 370.437L471.047 371.506C473.126 368.218 474.163 364.558 474.163 360.553H472.163ZM469.411 351.32C471.219 353.654 472.163 356.704 472.163 360.553H474.163C474.163 356.372 473.132 352.859 470.992 350.095L469.411 351.32ZM462.693 345.775C465.286 347.042 467.525 348.885 469.411 351.32L470.992 350.095C468.929 347.432 466.455 345.388 463.571 343.978L462.693 345.775ZM452.303 341.618C456.611 343.076 460.066 344.461 462.685 345.771L463.579 343.982C460.848 342.616 457.298 341.197 452.944 339.724L452.303 341.618ZM442.56 337.612C444.696 338.881 447.966 340.214 452.316 341.622L452.932 339.72C448.62 338.324 445.521 337.045 443.581 335.892L442.56 337.612ZM439.014 331.686C439.014 334.244 440.253 336.241 442.56 337.612L443.581 335.892C441.812 334.841 441.014 333.461 441.014 331.686H439.014ZM441.184 326.429C439.694 327.684 439.014 329.495 439.014 331.686H441.014C441.014 329.926 441.543 328.742 442.473 327.958L441.184 326.429ZM446.605 324.569C444.44 324.569 442.593 325.167 441.162 326.449L442.496 327.939C443.485 327.053 444.821 326.569 446.605 326.569V324.569ZM452.898 326.726C451.219 325.265 449.093 324.569 446.605 324.569V326.569C448.703 326.569 450.334 327.146 451.585 328.235L452.898 326.726ZM455.628 332.488C455.487 330.087 454.589 328.123 452.879 326.71L451.604 328.251C452.824 329.259 453.518 330.672 453.632 332.605L455.628 332.488ZM472.303 331.546H454.63V333.546H472.303V331.546ZM464.43 318.617C468.696 321.923 470.999 326.545 471.304 332.597L473.302 332.496C472.97 325.93 470.433 320.739 465.655 317.036L464.43 318.617ZM447.178 313.474C454.406 313.474 460.122 315.217 464.423 318.611L465.662 317.041C460.919 313.298 454.727 311.474 447.178 311.474V313.474ZM430.125 318.611C434.429 315.215 440.083 313.474 447.178 313.474V311.474C439.753 311.474 433.626 313.301 428.886 317.041L430.125 318.611ZM423.723 332.451C423.723 326.482 425.865 321.913 430.118 318.617L428.893 317.036C424.102 320.749 421.723 325.929 421.723 332.451H423.723ZM426.482 342.075C424.672 339.68 423.723 336.501 423.723 332.451H421.723C421.723 336.812 422.748 340.451 424.887 343.281L426.482 342.075ZM433.193 347.706C430.606 346.442 428.369 344.572 426.482 342.075L424.887 343.281C426.948 346.01 429.425 348.091 432.315 349.503L433.193 347.706ZM443.652 351.664C439.35 350.334 435.868 349.014 433.193 347.706L432.315 349.503C435.116 350.872 438.703 352.228 443.062 353.575L443.652 351.664ZM450.638 354.093C448.989 353.367 446.65 352.557 443.643 351.661L443.072 353.577C446.051 354.465 448.297 355.248 449.832 355.924L450.638 354.093ZM455.051 356.978C453.862 355.789 452.379 354.83 450.625 354.088L449.846 355.93C451.403 356.589 452.659 357.414 453.636 358.392L455.051 356.978ZM457.063 361.795C457.063 359.879 456.387 358.241 455.03 356.958L453.656 358.412C454.592 359.296 455.063 360.398 455.063 361.795H457.063ZM454.595 367.253C456.251 365.897 457.063 364.039 457.063 361.795H455.063C455.063 363.502 454.474 364.767 453.328 365.705L454.595 367.253ZM448.229 369.104C450.791 369.104 452.942 368.531 454.573 367.27L453.349 365.688C452.178 366.594 450.508 367.104 448.229 367.104V369.104ZM441.841 366.947C443.525 368.411 445.685 369.104 448.229 369.104V367.104C446.06 367.104 444.4 366.522 443.154 365.438L441.841 366.947ZM438.923 360.559C439.196 363.223 440.133 365.387 441.823 366.93L443.172 365.454C441.932 364.321 441.149 362.662 440.913 360.355L438.923 360.559ZM422.532 361.457H439.918V359.457H422.532V361.457ZM426.968 371.144C424.811 368.207 423.654 364.651 423.532 360.428L421.532 360.486C421.665 365.057 422.927 369.02 425.356 372.328L426.968 371.144ZM435.904 377.884C432.172 376.354 429.201 374.102 426.96 371.134L425.364 372.338C427.836 375.615 431.106 378.079 435.145 379.735L435.904 377.884Z" fill="url(#paint0_linear_2230_32)" mask="url(#path-1-inside-1_2230_32)"/>
<defs>
<linearGradient id="paint0_linear_2230_32" x1="348.327" y1="311" x2="348.327" y2="385.628" gradientUnits="userSpaceOnUse">
<stop stop-color="#C7D6FE" stop-opacity="0.19"/>
<stop offset="1" stop-color="#808CAD"/>
</linearGradient>
</defs>
</svg>
